<?xml version="1.0" encoding="UTF-8"?>
<svg xmlns="http://www.w3.org/2000/svg" viewBox="0 0 1785 501" role="img" aria-labelledby="title desc">
  <title id="title">Mavu Days Logo</title>
  <desc id="desc">Mavu Days logo with house-inspired M, mango-shaped D, leaf details and a curved walkway mark.</desc>
  <defs>
    <linearGradient id="greenLogo" x1="0" y1="0" x2="0" y2="1">
      <stop offset="0%" stop-color="#214F1E"/>
      <stop offset="100%" stop-color="#0F3917"/>
    </linearGradient>
    <linearGradient id="goldLogo" x1="0" y1="0" x2="1" y2="1">
      <stop offset="0%" stop-color="#F0A400"/>
      <stop offset="100%" stop-color="#C98500"/>
    </linearGradient>
  </defs>
  <path d="M 178 340 L 178 341 L 183 345 L 197 352 L 199 352 L 212 359 L 214 359 L 223 364 L 228 365 L 231 367 L 233 367 L 241 371 L 246 372 L 254 376 L 262 378 L 265 380 L 267 380 L 268 381 L 270 381 L 271 382 L 273 382 L 274 383 L 276 383 L 277 384 L 279 384 L 286 387 L 289 387 L 293 389 L 296 389 L 303 392 L 306 392 L 310 394 L 313 394 L 320 397 L 323 397 L 324 398 L 327 398 L 334 401 L 337 401 L 344 404 L 349 404 L 353 406 L 357 406 L 358 407 L 361 407 L 362 408 L 365 408 L 366 409 L 369 409 L 370 410 L 373 410 L 374 411 L 377 411 L 378 412 L 381 412 L 382 413 L 386 413 L 387 414 L 390 414 L 391 415 L 394 415 L 395 416 L 398 416 L 399 417 L 402 417 L 403 418 L 406 418 L 407 419 L 411 419 L 412 420 L 415 420 L 416 421 L 420 421 L 421 422 L 425 422 L 426 423 L 432 423 L 433 424 L 437 424 L 438 425 L 447 426 L 448 427 L 451 427 L 452 428 L 462 429 L 463 430 L 467 430 L 468 431 L 473 431 L 474 432 L 477 432 L 478 433 L 481 433 L 482 434 L 487 434 L 488 435 L 493 435 L 494 436 L 499 436 L 500 437 L 505 437 L 506 438 L 513 438 L 514 439 L 527 440 L 528 441 L 533 441 L 534 442 L 540 442 L 541 443 L 547 443 L 548 444 L 554 444 L 555 445 L 561 445 L 562 446 L 567 446 L 568 447 L 574 447 L 575 448 L 588 449 L 589 450 L 595 450 L 596 451 L 602 451 L 603 452 L 610 452 L 611 453 L 619 453 L 620 454 L 628 454 L 629 455 L 646 456 L 647 457 L 648 456 L 649 457 L 667 458 L 668 459 L 690 460 L 691 461 L 700 461 L 701 462 L 713 462 L 714 463 L 731 463 L 732 464 L 752 464 L 753 465 L 786 466 L 787 467 L 803 467 L 804 468 L 826 468 L 827 469 L 860 469 L 861 470 L 998 470 L 999 469 L 1031 469 L 1032 468 L 1070 467 L 1071 466 L 1102 465 L 1103 464 L 1114 464 L 1115 463 L 1128 463 L 1129 462 L 1142 462 L 1143 461 L 1166 460 L 1167 459 L 1175 459 L 1176 458 L 1185 458 L 1186 457 L 1194 457 L 1195 456 L 1204 456 L 1205 455 L 1214 455 L 1215 454 L 1225 454 L 1226 453 L 1232 453 L 1233 452 L 1240 452 L 1241 451 L 1247 451 L 1248 450 L 1261 449 L 1262 448 L 1267 448 L 1268 447 L 1274 447 L 1275 446 L 1280 446 L 1281 445 L 1292 444 L 1293 443 L 1303 442 L 1304 441 L 1308 441 L 1309 440 L 1313 440 L 1314 439 L 1325 438 L 1326 437 L 1330 437 L 1331 436 L 1340 435 L 1341 434 L 1344 434 L 1345 433 L 1348 433 L 1349 432 L 1353 432 L 1354 431 L 1363 430 L 1364 429 L 1367 429 L 1368 428 L 1371 428 L 1372 427 L 1383 425 L 1387 423 L 1390 423 L 1391 422 L 1394 422 L 1395 421 L 1406 419 L 1407 418 L 1413 417 L 1416 415 L 1422 414 L 1423 413 L 1425 413 L 1426 412 L 1428 412 L 1429 411 L 1431 411 L 1434 409 L 1438 408 L 1436 409 L 1433 409 L 1432 410 L 1428 410 L 1427 411 L 1420 412 L 1419 413 L 1416 413 L 1415 414 L 1412 414 L 1411 415 L 1407 415 L 1406 416 L 1397 417 L 1396 418 L 1393 418 L 1392 419 L 1388 419 L 1387 420 L 1383 420 L 1382 421 L 1378 421 L 1377 422 L 1373 422 L 1372 423 L 1368 423 L 1367 424 L 1363 424 L 1362 425 L 1358 425 L 1357 426 L 1353 426 L 1352 427 L 1348 427 L 1347 428 L 1342 428 L 1341 429 L 1337 429 L 1336 430 L 1332 430 L 1331 431 L 1325 431 L 1324 432 L 1320 432 L 1319 433 L 1305 434 L 1304 435 L 1298 435 L 1297 436 L 1292 436 L 1291 437 L 1286 437 L 1285 438 L 1279 438 L 1278 439 L 1272 439 L 1271 440 L 1264 440 L 1263 441 L 1257 441 L 1256 442 L 1248 442 L 1247 443 L 1241 443 L 1240 444 L 1224 445 L 1223 446 L 1215 446 L 1214 447 L 1206 447 L 1205 448 L 1197 448 L 1196 449 L 1186 449 L 1185 450 L 1173 450 L 1172 451 L 1169 450 L 1168 451 L 1158 451 L 1157 452 L 1147 452 L 1146 453 L 1134 453 L 1133 454 L 1103 455 L 1102 456 L 1086 456 L 1085 457 L 1072 457 L 1071 458 L 1032 459 L 1031 460 L 1003 460 L 1002 461 L 999 461 L 998 460 L 996 461 L 883 461 L 882 460 L 829 460 L 828 459 L 808 459 L 807 458 L 785 458 L 784 457 L 770 457 L 769 456 L 750 456 L 749 455 L 721 454 L 720 453 L 703 453 L 702 452 L 693 452 L 692 451 L 667 450 L 666 449 L 659 449 L 658 448 L 648 448 L 647 447 L 629 446 L 628 445 L 623 445 L 622 444 L 614 444 L 613 443 L 599 442 L 598 441 L 592 441 L 591 440 L 585 440 L 584 439 L 576 439 L 575 438 L 563 437 L 562 436 L 556 436 L 555 435 L 548 435 L 547 434 L 539 434 L 538 433 L 524 432 L 523 431 L 518 431 L 517 430 L 512 430 L 511 429 L 505 429 L 504 428 L 500 428 L 499 427 L 494 427 L 493 426 L 489 426 L 488 425 L 484 425 L 483 424 L 478 424 L 477 423 L 473 423 L 472 422 L 467 422 L 466 421 L 462 421 L 461 420 L 456 420 L 455 419 L 451 419 L 450 418 L 446 418 L 445 417 L 433 416 L 432 415 L 428 415 L 427 414 L 418 413 L 417 412 L 414 412 L 413 411 L 404 410 L 403 409 L 400 409 L 399 408 L 396 408 L 395 407 L 391 407 L 390 406 L 387 406 L 386 405 L 383 405 L 382 404 L 373 403 L 372 402 L 369 402 L 368 401 L 365 401 L 364 400 L 361 400 L 360 399 L 356 399 L 352 397 L 347 397 L 346 396 L 343 396 L 339 394 L 328 392 L 321 389 L 317 389 L 316 388 L 313 388 L 312 387 L 306 386 L 302 384 L 299 384 L 295 382 L 284 380 L 275 376 L 268 375 L 265 373 L 263 373 L 262 372 L 260 372 L 253 369 L 247 368 L 242 365 L 234 363 L 229 360 L 227 360 L 224 358 L 219 357 L 201 348 L 196 343 L 196 340 L 199 337 L 202 336 L 186 336 L 185 337 L 180 338 Z
M 191 332 L 191 333 L 198 333 L 199 334 L 221 334 L 221 333 L 200 333 L 199 332 Z
M 181 247 L 179 249 L 175 251 L 170 256 L 166 263 L 166 265 L 164 269 L 164 324 L 224 324 L 224 273 L 223 272 L 223 268 L 222 267 L 221 262 L 213 251 L 204 246 L 202 246 L 198 244 L 192 244 L 191 245 L 187 245 L 186 246 Z
M 192 286 L 196 287 L 200 291 L 200 294 L 201 295 L 200 299 L 196 303 L 189 303 L 184 299 L 184 293 L 188 288 Z
M 847 224 L 847 225 L 853 225 L 854 226 L 856 226 L 861 231 L 862 235 L 863 236 L 863 301 L 864 302 L 864 306 L 867 312 L 867 314 L 876 324 L 880 325 L 885 328 L 887 328 L 891 330 L 908 330 L 909 329 L 913 329 L 916 327 L 918 327 L 922 325 L 924 323 L 928 321 L 938 311 L 938 310 L 940 309 L 941 310 L 941 320 L 943 323 L 943 325 L 946 328 L 952 328 L 953 327 L 970 327 L 970 326 L 964 325 L 960 322 L 960 321 L 958 319 L 957 313 L 956 312 L 956 220 L 952 220 L 951 221 L 947 221 L 946 222 L 940 222 L 939 223 L 933 223 L 932 224 L 926 224 L 926 225 L 932 225 L 933 226 L 935 226 L 939 230 L 939 232 L 940 233 L 940 302 L 936 307 L 936 308 L 927 317 L 926 317 L 923 320 L 915 324 L 912 324 L 911 325 L 897 325 L 890 322 L 882 314 L 879 308 L 878 302 L 877 301 L 877 286 L 876 285 L 876 220 L 874 221 L 868 221 L 867 222 L 861 222 L 860 223 L 854 223 L 853 224 Z
M 659 220 L 659 222 L 663 223 L 665 225 L 669 227 L 676 236 L 679 243 L 681 245 L 685 253 L 685 255 L 695 275 L 697 277 L 699 281 L 699 283 L 709 302 L 709 304 L 723 331 L 726 327 L 726 325 L 737 303 L 737 301 L 744 288 L 744 286 L 770 234 L 777 226 L 785 222 L 785 221 L 752 221 L 752 222 L 759 224 L 763 228 L 763 230 L 764 231 L 764 235 L 755 253 L 755 255 L 751 262 L 751 264 L 748 268 L 738 288 L 736 295 L 734 297 L 733 301 L 730 307 L 728 309 L 705 263 L 705 261 L 698 248 L 698 246 L 692 234 L 692 230 L 694 228 L 694 227 L 696 225 L 702 222 L 704 222 L 704 221 L 703 220 L 684 220 L 683 221 L 679 221 L 678 220 Z
M 540 205 L 534 217 L 534 219 L 532 221 L 532 223 L 523 240 L 521 247 L 518 251 L 518 253 L 507 275 L 505 277 L 502 285 L 500 287 L 498 292 L 496 294 L 485 316 L 480 322 L 475 325 L 470 326 L 470 327 L 471 328 L 472 327 L 473 328 L 488 328 L 489 327 L 500 327 L 502 328 L 503 327 L 502 326 L 496 325 L 492 321 L 491 317 L 492 316 L 493 312 L 498 308 L 501 308 L 504 306 L 507 306 L 511 304 L 514 304 L 515 303 L 526 300 L 532 297 L 534 295 L 537 294 L 547 285 L 547 284 L 550 281 L 551 278 L 554 275 L 548 276 L 547 277 L 536 280 L 524 286 L 522 288 L 516 291 L 508 298 L 507 298 L 507 299 L 505 300 L 497 309 L 496 308 L 496 306 L 498 304 L 498 303 L 509 292 L 510 290 L 511 290 L 516 285 L 517 285 L 523 280 L 531 276 L 533 276 L 540 273 L 544 273 L 545 272 L 551 272 L 552 271 L 554 271 L 558 275 L 577 313 L 577 321 L 574 324 L 572 325 L 569 325 L 567 326 L 567 327 L 609 327 L 610 328 L 611 326 L 609 326 L 608 325 L 601 323 L 595 316 L 564 256 L 564 254 L 558 243 L 558 241 L 554 234 L 554 232 L 552 230 L 552 228 L 544 213 L 542 206 Z
M 536 226 L 537 227 L 537 229 L 539 231 L 539 233 L 545 245 L 545 247 L 550 256 L 550 258 L 553 263 L 554 267 L 553 268 L 549 268 L 548 267 L 537 267 L 536 268 L 531 268 L 530 269 L 527 269 L 521 272 L 519 272 L 515 274 L 513 276 L 512 274 L 521 257 L 521 255 L 524 250 L 524 248 L 534 228 Z
M 388 55 L 387 54 L 346 54 L 346 61 L 348 61 L 352 63 L 355 67 L 355 79 L 354 80 L 350 80 L 349 81 L 342 81 L 340 82 L 304 110 L 300 112 L 282 126 L 275 130 L 271 134 L 270 134 L 260 142 L 253 146 L 249 150 L 242 154 L 239 157 L 235 159 L 232 162 L 225 166 L 222 169 L 212 175 L 209 178 L 205 180 L 202 183 L 201 183 L 198 186 L 195 187 L 193 189 L 190 189 L 180 183 L 167 173 L 164 172 L 162 170 L 155 166 L 152 163 L 130 149 L 123 143 L 119 141 L 116 138 L 112 136 L 109 133 L 105 131 L 95 123 L 78 112 L 76 112 L 75 111 L 31 111 L 31 113 L 33 113 L 36 115 L 40 116 L 45 121 L 48 128 L 48 307 L 47 308 L 47 312 L 46 313 L 45 317 L 39 323 L 30 325 L 30 327 L 100 327 L 99 325 L 95 325 L 94 324 L 90 323 L 83 317 L 81 313 L 80 303 L 79 302 L 79 136 L 80 135 L 82 137 L 88 140 L 102 150 L 105 151 L 119 161 L 122 162 L 125 165 L 126 165 L 128 167 L 144 177 L 147 180 L 172 196 L 178 201 L 181 202 L 187 207 L 191 209 L 193 209 L 200 203 L 208 198 L 216 191 L 223 187 L 234 178 L 238 176 L 241 173 L 248 169 L 258 161 L 259 161 L 268 154 L 272 152 L 275 149 L 279 147 L 286 141 L 290 139 L 301 130 L 308 126 L 315 120 L 319 118 L 322 115 L 323 115 L 326 112 L 327 112 L 330 109 L 334 107 L 343 100 L 345 100 L 346 101 L 346 303 L 345 304 L 345 311 L 344 312 L 343 316 L 334 324 L 326 325 L 326 327 L 398 327 L 398 325 L 394 325 L 393 324 L 388 323 L 386 321 L 385 321 L 379 314 L 379 308 L 378 307 L 378 291 L 377 290 L 377 72 L 378 71 L 378 68 L 379 66 L 383 62 L 387 61 L 388 60 Z
M 1193 60 L 1189 56 L 1186 55 L 1184 53 L 1178 50 L 1173 49 L 1170 47 L 1162 46 L 1161 45 L 1157 45 L 1156 44 L 1146 44 L 1145 45 L 1140 45 L 1139 46 L 1131 47 L 1130 48 L 1125 49 L 1113 55 L 1111 57 L 1107 59 L 1097 69 L 1095 70 L 1095 71 L 1089 77 L 1089 78 L 1083 86 L 1071 110 L 1071 112 L 1069 115 L 1069 117 L 1068 118 L 1068 120 L 1065 127 L 1065 131 L 1077 120 L 1078 120 L 1086 114 L 1094 110 L 1096 110 L 1099 108 L 1105 107 L 1109 105 L 1112 105 L 1113 104 L 1116 104 L 1117 103 L 1128 101 L 1132 99 L 1135 99 L 1141 96 L 1143 96 L 1157 89 L 1167 81 L 1168 81 L 1180 70 L 1188 65 L 1188 64 L 1174 64 L 1173 65 L 1167 65 L 1166 66 L 1155 67 L 1154 68 L 1150 68 L 1146 70 L 1143 70 L 1137 73 L 1135 73 L 1129 76 L 1127 76 L 1125 78 L 1123 78 L 1121 80 L 1116 82 L 1114 84 L 1107 88 L 1100 94 L 1099 94 L 1092 101 L 1091 101 L 1091 102 L 1089 103 L 1071 122 L 1070 121 L 1073 115 L 1077 111 L 1077 110 L 1081 106 L 1081 105 L 1095 91 L 1096 91 L 1105 83 L 1106 83 L 1117 75 L 1124 72 L 1126 70 L 1130 69 L 1135 66 L 1143 64 L 1144 63 L 1151 62 L 1155 60 L 1160 60 L 1161 59 L 1189 59 L 1190 60 Z" fill="url(#greenLogo)" fill-rule="evenodd"/>
  <path d="M 194 287 L 189 288 L 185 293 L 185 299 L 190 303 L 196 302 L 199 299 L 199 297 L 200 296 L 199 294 L 199 291 Z
M 185 298 L 186 297 L 187 298 L 186 299 Z
M 193 292 L 197 290 L 199 292 L 199 294 L 198 295 L 197 294 L 194 294 Z
M 555 273 L 554 272 L 551 272 L 550 273 L 540 274 L 539 275 L 531 277 L 523 281 L 521 283 L 517 285 L 513 289 L 512 289 L 504 297 L 504 298 L 499 303 L 496 308 L 497 308 L 499 306 L 499 305 L 512 293 L 513 293 L 516 290 L 522 287 L 524 285 L 539 278 L 542 278 L 549 275 L 552 275 Z
M 505 297 L 506 296 L 507 297 L 506 298 Z
M 506 296 L 507 295 L 508 296 L 507 297 Z
M 523 285 L 517 289 L 515 288 L 521 283 Z
M 539 277 L 540 276 L 542 277 L 541 278 Z
M 542 276 L 543 275 L 544 276 L 543 277 Z
M 1647 232 L 1617 232 L 1621 234 L 1624 234 L 1627 237 L 1628 239 L 1628 244 L 1627 245 L 1626 251 L 1623 255 L 1623 257 L 1621 260 L 1621 263 L 1618 267 L 1616 275 L 1613 280 L 1612 285 L 1610 288 L 1610 290 L 1607 295 L 1607 297 L 1603 305 L 1602 310 L 1600 312 L 1594 300 L 1594 298 L 1591 294 L 1591 292 L 1586 282 L 1584 280 L 1583 275 L 1567 243 L 1567 240 L 1568 238 L 1572 234 L 1578 233 L 1579 232 L 1572 232 L 1570 234 L 1568 232 L 1537 232 L 1537 233 L 1538 232 L 1541 232 L 1542 233 L 1541 234 L 1543 234 L 1544 235 L 1545 234 L 1548 237 L 1551 242 L 1553 243 L 1553 245 L 1560 258 L 1560 260 L 1562 261 L 1562 263 L 1566 269 L 1565 270 L 1567 272 L 1568 276 L 1570 278 L 1578 295 L 1580 297 L 1582 304 L 1585 308 L 1585 310 L 1594 328 L 1592 331 L 1591 337 L 1585 348 L 1583 355 L 1581 357 L 1581 359 L 1579 361 L 1579 363 L 1576 369 L 1573 372 L 1572 375 L 1570 377 L 1568 381 L 1564 385 L 1563 385 L 1560 388 L 1555 391 L 1552 391 L 1551 392 L 1548 392 L 1547 393 L 1540 393 L 1539 392 L 1537 393 L 1533 391 L 1528 387 L 1524 385 L 1522 385 L 1522 386 L 1520 388 L 1520 390 L 1522 393 L 1529 397 L 1535 398 L 1536 399 L 1540 399 L 1541 398 L 1546 398 L 1547 397 L 1550 397 L 1551 396 L 1558 394 L 1573 380 L 1573 379 L 1581 368 L 1583 364 L 1583 362 L 1591 347 L 1591 344 L 1593 342 L 1595 338 L 1595 335 L 1598 330 L 1600 322 L 1602 319 L 1602 317 L 1604 314 L 1606 307 L 1608 305 L 1611 299 L 1612 293 L 1618 281 L 1619 276 L 1621 274 L 1621 271 L 1623 268 L 1623 266 L 1626 262 L 1627 257 L 1629 255 L 1629 253 L 1632 247 L 1632 245 L 1637 238 Z
M 1555 243 L 1556 242 L 1559 242 L 1562 245 L 1560 246 Z
M 1718 229 L 1717 231 L 1716 230 L 1713 232 L 1711 232 L 1707 234 L 1704 237 L 1703 237 L 1699 242 L 1696 248 L 1696 251 L 1695 252 L 1695 260 L 1699 269 L 1705 276 L 1706 276 L 1714 282 L 1719 284 L 1722 287 L 1724 287 L 1726 289 L 1734 293 L 1741 300 L 1742 303 L 1744 305 L 1743 306 L 1745 310 L 1745 314 L 1743 316 L 1744 317 L 1742 320 L 1742 322 L 1736 328 L 1730 331 L 1727 331 L 1726 332 L 1716 332 L 1715 331 L 1713 332 L 1708 328 L 1705 327 L 1702 324 L 1702 323 L 1699 320 L 1695 312 L 1695 327 L 1697 329 L 1711 335 L 1714 335 L 1715 336 L 1728 336 L 1732 334 L 1735 334 L 1737 332 L 1740 331 L 1749 323 L 1752 317 L 1753 311 L 1754 310 L 1754 302 L 1753 301 L 1753 296 L 1748 288 L 1740 281 L 1735 279 L 1728 274 L 1721 271 L 1715 266 L 1714 266 L 1710 262 L 1710 261 L 1706 256 L 1706 253 L 1705 252 L 1705 246 L 1708 240 L 1714 235 L 1720 234 L 1721 233 L 1728 233 L 1729 234 L 1732 234 L 1733 235 L 1737 236 L 1743 242 L 1745 246 L 1745 248 L 1747 249 L 1746 250 L 1748 251 L 1747 249 L 1748 235 L 1746 235 L 1741 232 L 1738 232 L 1737 231 L 1736 232 L 1737 233 L 1736 234 L 1732 233 L 1729 231 L 1730 230 L 1734 230 L 1732 230 L 1731 229 L 1720 229 L 1719 230 Z
M 1709 331 L 1710 330 L 1712 331 L 1711 332 Z
M 1736 292 L 1737 291 L 1738 292 L 1737 293 Z
M 1736 234 L 1737 233 L 1739 234 L 1738 235 Z
M 1426 226 L 1424 228 L 1423 231 L 1421 233 L 1418 239 L 1418 241 L 1415 246 L 1415 249 L 1413 251 L 1411 255 L 1411 257 L 1406 266 L 1406 268 L 1404 270 L 1404 272 L 1397 285 L 1397 288 L 1395 291 L 1395 293 L 1392 297 L 1392 299 L 1389 305 L 1387 307 L 1387 309 L 1385 312 L 1385 314 L 1383 316 L 1383 318 L 1381 320 L 1379 325 L 1375 329 L 1372 330 L 1370 332 L 1367 332 L 1366 334 L 1397 334 L 1398 333 L 1394 333 L 1390 331 L 1387 328 L 1387 326 L 1386 325 L 1387 324 L 1387 321 L 1388 320 L 1390 312 L 1392 310 L 1394 306 L 1394 304 L 1397 299 L 1397 297 L 1399 293 L 1401 291 L 1400 290 L 1401 289 L 1404 289 L 1405 291 L 1409 291 L 1410 292 L 1439 292 L 1440 291 L 1441 292 L 1442 291 L 1444 293 L 1458 323 L 1458 328 L 1454 332 L 1448 333 L 1448 334 L 1485 334 L 1483 332 L 1480 331 L 1477 328 L 1476 328 L 1473 324 L 1468 313 L 1466 311 L 1466 309 L 1464 307 L 1458 295 L 1458 293 L 1456 291 L 1454 287 L 1454 285 L 1447 272 L 1447 270 L 1436 248 L 1434 246 L 1435 245 L 1433 244 L 1434 243 L 1428 232 L 1428 230 Z
M 1450 303 L 1451 302 L 1452 303 L 1451 304 Z
M 1421 245 L 1422 246 L 1422 248 L 1424 250 L 1424 252 L 1426 254 L 1426 256 L 1433 269 L 1433 271 L 1441 287 L 1440 288 L 1417 288 L 1416 289 L 1403 289 L 1402 288 L 1402 285 L 1407 276 L 1407 274 L 1409 272 L 1409 270 L 1414 261 L 1415 256 Z
M 1245 87 L 1242 87 L 1238 85 L 1228 84 L 1227 83 L 1222 83 L 1221 82 L 1214 82 L 1213 81 L 1200 81 L 1199 82 L 1195 82 L 1194 83 L 1189 83 L 1188 84 L 1185 84 L 1179 87 L 1174 88 L 1172 90 L 1169 91 L 1155 105 L 1146 120 L 1146 122 L 1144 125 L 1144 127 L 1142 131 L 1143 132 L 1142 133 L 1142 136 L 1141 137 L 1142 139 L 1140 142 L 1141 144 L 1140 145 L 1140 184 L 1141 185 L 1141 190 L 1142 191 L 1142 200 L 1141 201 L 1142 202 L 1142 222 L 1143 223 L 1142 224 L 1142 241 L 1143 242 L 1143 249 L 1142 250 L 1142 254 L 1143 255 L 1142 256 L 1143 258 L 1143 286 L 1141 289 L 1141 291 L 1142 292 L 1140 294 L 1140 300 L 1139 301 L 1139 304 L 1138 305 L 1137 310 L 1135 313 L 1135 315 L 1133 317 L 1132 320 L 1129 323 L 1129 324 L 1116 336 L 1118 338 L 1122 340 L 1127 341 L 1129 343 L 1136 344 L 1137 345 L 1143 346 L 1144 347 L 1147 347 L 1148 348 L 1154 348 L 1155 349 L 1156 348 L 1160 348 L 1161 349 L 1175 349 L 1176 350 L 1180 350 L 1181 349 L 1198 349 L 1199 348 L 1204 348 L 1205 347 L 1209 347 L 1210 348 L 1211 347 L 1215 347 L 1216 346 L 1219 346 L 1223 344 L 1226 344 L 1233 341 L 1234 342 L 1235 341 L 1240 340 L 1243 338 L 1246 338 L 1248 336 L 1252 335 L 1256 332 L 1270 325 L 1272 323 L 1276 321 L 1289 309 L 1290 309 L 1306 290 L 1306 289 L 1310 284 L 1311 280 L 1316 272 L 1318 265 L 1320 263 L 1320 261 L 1322 258 L 1322 256 L 1324 252 L 1324 249 L 1326 245 L 1327 234 L 1328 233 L 1327 231 L 1328 230 L 1328 227 L 1329 226 L 1329 202 L 1328 201 L 1328 196 L 1327 195 L 1327 188 L 1326 187 L 1325 178 L 1323 175 L 1322 170 L 1318 162 L 1318 159 L 1316 157 L 1314 153 L 1314 151 L 1312 149 L 1310 145 L 1310 143 L 1306 138 L 1305 135 L 1297 125 L 1297 124 L 1288 114 L 1287 114 L 1279 106 L 1276 105 L 1267 98 L 1262 96 L 1260 94 L 1258 94 L 1254 91 L 1249 90 Z
M 1165 348 L 1166 347 L 1168 348 L 1167 349 Z
M 1134 342 L 1135 341 L 1138 341 L 1139 343 L 1137 344 Z
M 1164 97 L 1165 96 L 1166 97 L 1165 98 Z
M 1221 87 L 1225 89 L 1228 89 L 1229 90 L 1237 92 L 1240 94 L 1241 93 L 1243 95 L 1250 98 L 1252 100 L 1256 102 L 1265 110 L 1266 110 L 1279 125 L 1279 126 L 1283 131 L 1284 134 L 1286 136 L 1287 139 L 1289 141 L 1291 146 L 1293 148 L 1292 149 L 1295 154 L 1295 156 L 1297 159 L 1297 162 L 1299 165 L 1299 168 L 1301 172 L 1301 176 L 1302 177 L 1302 180 L 1303 181 L 1302 183 L 1304 186 L 1303 187 L 1303 190 L 1304 191 L 1304 209 L 1305 210 L 1305 215 L 1304 216 L 1304 236 L 1303 237 L 1302 245 L 1301 246 L 1301 249 L 1300 250 L 1300 254 L 1298 258 L 1298 261 L 1297 262 L 1296 267 L 1288 283 L 1286 285 L 1286 287 L 1276 300 L 1276 301 L 1262 315 L 1261 315 L 1254 321 L 1253 321 L 1245 327 L 1240 329 L 1238 331 L 1232 333 L 1230 335 L 1228 335 L 1227 336 L 1225 336 L 1218 339 L 1211 340 L 1210 341 L 1200 342 L 1193 345 L 1191 344 L 1189 344 L 1188 345 L 1186 344 L 1185 345 L 1168 345 L 1164 347 L 1162 344 L 1154 344 L 1153 343 L 1147 343 L 1146 342 L 1145 343 L 1144 342 L 1141 342 L 1140 341 L 1137 341 L 1136 340 L 1133 340 L 1132 339 L 1127 338 L 1124 336 L 1124 334 L 1126 333 L 1132 327 L 1133 327 L 1133 326 L 1139 320 L 1139 319 L 1142 316 L 1146 308 L 1146 305 L 1148 302 L 1148 299 L 1149 298 L 1149 296 L 1151 292 L 1151 289 L 1152 288 L 1152 282 L 1153 281 L 1153 276 L 1154 275 L 1154 265 L 1155 264 L 1155 249 L 1156 248 L 1155 247 L 1155 227 L 1154 226 L 1154 193 L 1153 192 L 1153 183 L 1152 182 L 1153 181 L 1153 176 L 1152 175 L 1152 171 L 1151 170 L 1151 165 L 1152 164 L 1150 162 L 1151 161 L 1150 160 L 1150 139 L 1151 138 L 1150 135 L 1151 134 L 1151 129 L 1153 125 L 1154 119 L 1156 116 L 1156 114 L 1158 112 L 1158 110 L 1167 100 L 1167 99 L 1180 90 L 1182 90 L 1189 87 L 1193 87 L 1194 86 L 1216 86 L 1217 87 Z
M 1219 85 L 1220 84 L 1223 84 L 1224 85 L 1221 87 Z
M 1196 62 L 1195 61 L 1190 61 L 1189 60 L 1160 60 L 1159 61 L 1155 61 L 1154 62 L 1151 62 L 1147 64 L 1144 64 L 1143 65 L 1135 67 L 1130 70 L 1128 70 L 1122 73 L 1120 75 L 1117 76 L 1115 78 L 1112 79 L 1106 84 L 1102 86 L 1096 92 L 1095 92 L 1082 105 L 1082 106 L 1078 110 L 1078 111 L 1074 115 L 1074 116 L 1070 121 L 1071 121 L 1076 116 L 1076 115 L 1098 94 L 1099 94 L 1102 91 L 1103 91 L 1116 81 L 1130 74 L 1132 74 L 1135 72 L 1137 72 L 1143 69 L 1146 69 L 1147 68 L 1150 68 L 1151 67 L 1154 67 L 1155 66 L 1161 66 L 1162 65 L 1174 64 L 1175 63 L 1188 63 L 1189 64 L 1195 64 Z
M 1077 112 L 1078 111 L 1079 112 L 1078 113 Z
M 1086 102 L 1087 101 L 1088 102 L 1087 103 Z
M 1087 101 L 1088 100 L 1089 101 L 1088 102 Z
M 1088 100 L 1089 99 L 1090 100 L 1089 101 Z
M 1107 86 L 1100 92 L 1098 91 L 1103 86 L 1105 85 Z
M 1107 85 L 1108 84 L 1109 85 L 1108 86 Z
M 1108 83 L 1109 82 L 1110 84 L 1109 85 Z
M 1109 82 L 1111 80 L 1112 81 L 1111 83 Z
M 1128 73 L 1129 72 L 1130 73 L 1129 74 Z
M 1126 72 L 1128 74 L 1123 77 L 1121 75 Z
M 1127 72 L 1128 71 L 1129 72 L 1128 73 Z
M 1142 68 L 1143 67 L 1144 68 L 1143 69 Z
M 1138 67 L 1139 66 L 1140 67 L 1139 68 Z
M 1166 63 L 1167 62 L 1171 62 L 1172 63 L 1171 64 L 1167 64 Z
M 1230 31 L 1226 30 L 1219 39 L 1218 43 L 1216 45 L 1217 46 L 1211 58 L 1211 60 L 1208 67 L 1207 74 L 1207 71 L 1209 68 L 1209 66 L 1211 65 L 1212 62 L 1214 60 L 1217 54 L 1225 45 L 1228 40 L 1231 38 L 1232 35 Z" fill="url(#goldLogo)" fill-rule="evenodd"/>
</svg>
